<svg width="45" height="45" viewBox="0 0 45 45" fill="none" xmlns="http://www.w3.org/2000/svg">
<circle cx="22.5" cy="22.5" r="22" stroke="white"/>
<path d="M30.25 13.75H15.2109C14.5469 13.75 14 14.3359 14 15.0391V30C14 30.7031 14.5469 31.25 15.2109 31.25H30.25C30.9141 31.25 31.5 30.7031 31.5 30V15.0391C31.5 14.3359 30.9141 13.75 30.25 13.75ZM19.2734 28.75H16.6953V20.4297H19.2734V28.75ZM17.9844 19.2578C17.125 19.2578 16.4609 18.5938 16.4609 17.7734C16.4609 16.9531 17.125 16.25 17.9844 16.25C18.8047 16.25 19.4688 16.9531 19.4688 17.7734C19.4688 18.5938 18.8047 19.2578 17.9844 19.2578ZM29 28.75H26.3828V24.6875C26.3828 23.75 26.3828 22.5 25.0547 22.5C23.6875 22.5 23.4922 23.5547 23.4922 24.6484V28.75H20.9141V20.4297H23.375V21.5625H23.4141C23.7656 20.8984 24.625 20.1953 25.875 20.1953C28.4922 20.1953 29 21.9531 29 24.1797V28.75Z" fill="white"/>
</svg>
