<svg width="39" height="38" viewBox="0 0 39 38" fill="none" xmlns="http://www.w3.org/2000/svg">
<path fill-rule="evenodd" clip-rule="evenodd" d="M28.1059 0.829102C34.0828 0.829102 38.5898 5.89271 38.5898 12.6075V25.4073C38.5898 28.8439 37.4195 31.9488 35.2926 34.1516C33.3846 36.1253 30.9095 37.1708 28.1346 37.1708H10.4497C7.68026 37.1708 5.20692 36.1271 3.29718 34.1516C1.17026 31.9488 0 28.8439 0 25.4073V12.6075C0 5.89271 4.50692 0.829102 10.4838 0.829102H28.1059ZM28.1059 3.62461H10.4838C5.96974 3.62461 2.69231 7.40229 2.69231 12.6075V25.4073C2.69231 28.0965 3.58256 30.4988 5.19795 32.1705C6.59077 33.6149 8.40898 34.3753 10.4551 34.3753H28.1059C28.1095 34.3715 28.1239 34.3753 28.1346 34.3753C30.1826 34.3753 31.999 33.6149 33.3918 32.1705C35.009 30.4988 35.8974 28.0965 35.8974 25.4073V12.6075C35.8974 7.40229 32.62 3.62461 28.1059 3.62461ZM30.9346 12.2512C31.4031 12.8494 31.3151 13.7291 30.739 14.2174L22.7626 20.949C21.7539 21.7802 20.5477 22.1958 19.3433 22.1958C18.1426 22.1958 16.9454 21.7839 15.9439 20.9602L7.89385 14.2211C7.3141 13.7365 7.22436 12.855 7.68923 12.2549C8.15769 11.6567 9.00487 11.5616 9.58282 12.0443L17.6256 18.7759C18.6362 19.6071 20.0595 19.6071 21.0772 18.7685L29.0392 12.0481C29.6172 11.5579 30.4644 11.6511 30.9346 12.2512Z" fill="#2351DC"/>
</svg>
