<svg width="80" height="80" viewBox="0 0 80 80" fill="none" xmlns="http://www.w3.org/2000/svg">
<rect width="80" height="80" rx="12" fill="#EDF1FC"/>
<path d="M21.7188 32.9375C20.5938 35.375 20.0312 38.1875 20.0312 41C20.0312 48.9688 24.625 55.7188 31.2812 59L21.7188 32.9375ZM53.4062 40.0625C53.4062 37.5312 52.5625 35.8438 51.8125 34.5312C50.7812 32.9375 49.8438 31.5312 49.8438 29.8438C49.8438 28.0625 51.25 26.2812 53.125 26.2812C53.2188 26.2812 53.3125 26.2812 53.4062 26.375C49.8438 23.0938 45.1562 21.125 40 21.125C32.9688 21.125 26.875 24.6875 23.3125 30.125C23.7812 30.125 24.1562 30.125 24.5312 30.125C26.6875 30.125 29.875 29.8438 29.875 29.8438C31 29.75 31.0938 31.3438 30.0625 31.5312C30.0625 31.5312 28.9375 31.625 27.7188 31.7188L35.0312 53.2812L39.3438 40.1562L36.25 31.7188C35.2188 31.625 34.1875 31.5312 34.1875 31.5312C33.0625 31.4375 33.25 29.75 34.2812 29.8438C34.2812 29.8438 37.5625 30.125 39.5312 30.125C41.5938 30.125 44.875 29.8438 44.875 29.8438C45.9062 29.75 46.0938 31.3438 44.9688 31.5312C44.9688 31.5312 43.9375 31.625 42.7188 31.7188L49.9375 53.0938L51.9062 46.4375C52.75 43.7188 53.4062 41.75 53.4062 40.0625ZM40.2812 42.7812L34.2812 60.2188C36.1562 60.6875 38.0312 60.9688 40 60.9688C42.25 60.9688 44.5 60.5938 46.5625 59.8438C46.5625 59.75 46.4688 59.6562 46.4688 59.5625L40.2812 42.7812ZM57.4375 31.4375C57.5312 32.0938 57.625 32.75 57.625 33.5C57.625 35.5625 57.25 37.8125 56.0312 40.625L49.9375 58.25C55.9375 54.7812 59.875 48.4062 59.875 41C59.875 37.5312 59.0312 34.3438 57.4375 31.4375ZM63.25 41C63.25 28.25 52.75 17.75 40 17.75C27.1562 17.75 16.75 28.25 16.75 41C16.75 53.8438 27.1562 64.25 40 64.25C52.75 64.25 63.25 53.8438 63.25 41ZM62.125 41C62.125 53.2812 52.1875 63.2188 40 63.2188C27.7188 63.2188 17.7812 53.2812 17.7812 41C17.7812 28.8125 27.7188 18.875 40 18.875C52.1875 18.875 62.125 28.8125 62.125 41Z" fill="#2351DC"/>
</svg>
