<svg width="35" height="36" viewBox="0 0 35 36" fill="none" xmlns="http://www.w3.org/2000/svg">
<path fill-rule="evenodd" clip-rule="evenodd" d="M4.02779 5.51999C4.0312 5.51999 3.94584 5.60877 3.83828 5.71462C3.42511 6.11584 2.56976 6.9507 2.56114 8.69726C2.54757 11.1404 4.15413 15.6767 11.8899 23.4107C19.5898 31.1072 24.1192 32.7325 26.5675 32.7325H26.6033C28.3499 32.724 29.183 31.8669 29.5859 31.4555C29.7089 31.3291 29.8079 31.2369 29.8779 31.1789C31.5784 29.4682 32.4491 28.1945 32.4406 27.3785C32.4286 26.5453 31.3923 25.5602 29.9598 24.1978C29.504 23.7641 29.0089 23.2929 28.4865 22.7705C27.1326 21.42 26.4616 21.6505 24.9865 22.1695C22.9463 22.8849 20.1463 23.858 15.7962 19.5061C11.4391 15.1525 12.414 12.356 13.1277 10.3158C13.6433 8.84068 13.8789 8.168 12.5233 6.81241C11.9923 6.28315 11.516 5.78121 11.0772 5.32024C9.72331 3.89636 8.74674 2.86686 7.91871 2.85491H7.90505C7.08725 2.85491 5.81703 3.72904 4.01925 5.52682C4.02437 5.5217 4.02608 5.51999 4.02779 5.51999ZM26.5692 35.2935C22.3146 35.2935 16.7676 31.9062 10.0801 25.2221C3.36707 18.5108 -0.0253232 12.9467 0.000142307 8.68361C0.0156518 5.86657 1.49246 4.42391 2.04733 3.8827C2.07635 3.84685 2.17538 3.74953 2.20952 3.71539C4.65778 1.26542 6.30873 0.275193 7.95114 0.293712C9.85819 0.319583 11.2155 1.74688 12.933 3.5549C13.3581 4.00221 13.8191 4.48879 14.333 5.00098C16.8256 7.49362 16.1154 9.52701 15.5452 11.1592C14.9237 12.9399 14.3859 14.4764 17.6059 17.6964C20.8292 20.9164 22.3658 20.3786 24.1397 19.752C25.7736 19.1817 27.8018 18.4681 30.2979 20.9607C30.8032 21.4661 31.283 21.9219 31.7252 22.3436C33.5417 24.0697 34.9759 25.4338 35.0001 27.346C35.0203 28.9765 34.03 30.6377 31.5852 33.0842L30.5028 32.3501L31.4179 33.2447C30.8767 33.7996 29.4357 35.2781 26.617 35.2935H26.5692Z" fill="#2351DC"/>
</svg>
