<svg width="80" height="80" viewBox="0 0 80 80" fill="none" xmlns="http://www.w3.org/2000/svg">
<rect width="80" height="80" rx="12" fill="#EDF1FC"/>
<path d="M19 19V61H61V19H19ZM41.7812 51.8125C41.7812 55.8438 39.4375 57.7188 35.875 57.7188C32.7812 57.7188 30.9062 56.125 29.9688 54.1562L33.25 52.1875C33.8125 53.3125 34.375 54.25 35.7812 54.25C37 54.25 37.8438 53.6875 37.8438 51.7188V38.3125H41.7812V51.8125ZM51.1562 57.7188C47.5 57.7188 45.1562 56.0312 43.9375 53.6875L47.2188 51.9062C48.0625 53.2188 49.0938 54.25 51.0625 54.25C52.6562 54.25 53.7812 53.4062 53.7812 52.2812C53.7812 50.9688 52.6562 50.5 50.875 49.6562L49.8438 49.2812C47.0312 48.0625 45.1562 46.5625 45.1562 43.2812C45.1562 40.375 47.4062 38.125 50.9688 38.125C53.4062 38.125 55.2812 38.9688 56.5 41.2188L53.5 43.1875C52.75 42.0625 52.0938 41.5 50.875 41.5C49.75 41.5 49 42.25 49 43.1875C49 44.4062 49.75 44.875 51.4375 45.625L52.4688 46.0938C55.8438 47.5 57.7188 49 57.7188 52.2812C57.7188 55.8438 54.9062 57.7188 51.1562 57.7188Z" fill="#2351DC"/>
</svg>
